<?xml version="1.0" standalone="no"?>
<!DOCTYPE svg PUBLIC "-//W3C//DTD SVG 20010904//EN"
 "http://www.w3.org/TR/2001/REC-SVG-20010904/DTD/svg10.dtd">
<svg version="1.0" xmlns="http://www.w3.org/2000/svg"
 width="1030.000000pt" height="1030.000000pt" viewBox="0 0 1030.000000 1030.000000"
 preserveAspectRatio="xMidYMid meet">

<g transform="translate(0.000000,1030.000000) scale(0.100000,-0.100000)"
fill="#000000" stroke="none">
<path d="M5040 8193 c-71 -73 -94 -104 -132 -183 -72 -149 -83 -199 -83 -381
l0 -157 -40 27 c-60 41 -189 96 -285 122 -189 52 -580 13 -554 -55 3 -8 47
-38 97 -67 50 -28 128 -83 173 -121 77 -65 232 -243 222 -254 -3 -3 -35 6 -70
20 -160 60 -384 81 -558 51 -126 -21 -150 -29 -150 -53 0 -14 24 -29 95 -60
336 -146 583 -447 660 -804 l12 -57 -66 -6 c-90 -9 -191 -40 -284 -86 -58 -30
-100 -61 -166 -127 -97 -96 -148 -176 -190 -300 l-26 -77 0 -1100 0 -1100 23
-105 c67 -303 195 -542 403 -749 251 -252 556 -392 917 -422 425 -34 838 118
1141 422 208 207 336 446 403 749 l23 105 0 1100 0 1100 -26 77 c-42 124 -93
204 -190 300 -66 66 -108 97 -166 127 -93 46 -194 77 -284 86 l-66 6 12 57
c23 106 46 170 98 274 120 237 318 424 562 530 71 31 95 46 95 60 0 24 -24 32
-150 53 -121 21 -288 16 -413 -10 -77 -17 -214 -62 -268 -90 -15 -8 -31 -15
-34 -15 -3 0 19 33 49 73 110 145 291 284 479 367 54 23 100 47 103 52 13 21
-26 39 -124 58 -128 25 -324 27 -443 4 -95 -18 -256 -67 -311 -95 -21 -11 -39
-19 -41 -19 -3 0 -7 62 -10 138 -6 159 -24 232 -89 362 -33 66 -62 105 -129
173 -59 60 -93 87 -109 87 -16 0 -50 -27 -110 -87z m193 -53 c120 -129 187
-307 188 -496 1 -147 0 -151 -89 -209 -42 -27 -103 -75 -137 -105 -112 -102
-87 -103 -199 7 -113 111 -117 123 -117 303 0 128 24 230 82 347 44 90 157
223 189 223 10 0 47 -32 83 -70z m-765 -571 c272 -60 532 -265 710 -562 50
-83 142 -283 142 -308 0 -8 -22 -51 -49 -97 -27 -46 -61 -116 -77 -157 -19
-49 -34 -75 -44 -75 -10 0 -26 27 -44 75 -35 93 -102 208 -174 300 -87 112
-248 252 -349 303 -29 15 -52 39 -77 79 -86 142 -275 331 -403 404 l-57 33 29
8 c46 13 184 25 245 21 30 -2 97 -13 148 -24z m1782 12 l35 -7 -67 -31 c-160
-75 -337 -223 -459 -383 -39 -52 -76 -105 -82 -118 -6 -12 -38 -43 -71 -67
-68 -49 -193 -167 -219 -204 -9 -14 -18 -23 -20 -20 -1 2 -20 45 -41 94 -37
89 -121 238 -170 305 l-26 34 52 54 c144 146 405 287 618 332 123 27 342 32
450 11z m-2057 -447 c282 -55 541 -218 714 -449 85 -113 177 -312 198 -427 l7
-38 -315 0 -314 0 -13 63 c-67 343 -298 645 -624 818 l-70 37 45 6 c125 17
249 13 372 -10z m2286 10 l45 -6 -70 -37 c-163 -86 -293 -196 -405 -341 -110
-143 -179 -290 -215 -457 l-17 -83 -315 0 -314 0 7 38 c12 67 45 156 96 257
175 353 524 594 919 635 73 8 179 5 269 -6z m-1643 -1183 l266 -200 -336 -252
-336 -251 -317 237 c-175 131 -319 239 -320 240 -2 1 12 29 30 62 84 157 228
277 397 331 82 26 100 29 238 31 l112 1 266 -199z m556 18 l-242 -181 -242
181 -241 181 483 0 483 0 -241 -181z m695 148 c172 -60 307 -174 390 -330 18
-33 32 -61 30 -62 -1 -1 -145 -109 -320 -240 l-317 -237 -336 251 -336 252
264 200 263 199 145 -4 c122 -3 156 -8 217 -29z m-598 -656 l333 -250 -336
-252 -336 -251 -336 251 -336 252 333 250 c183 137 335 249 339 249 4 0 156
-112 339 -249z m-1111 -247 c2 -1 -141 -111 -318 -244 l-322 -242 5 434 c3
318 7 443 17 470 l13 36 301 -225 c166 -124 303 -227 304 -229z m2180 -52 l4
-434 -322 242 -321 241 303 228 303 228 14 -36 c12 -29 15 -125 19 -469z
m-1789 -241 l333 -250 -336 -252 -336 -251 -336 251 -336 252 333 250 c183
137 335 249 339 249 4 0 156 -112 339 -249z m1440 0 l333 -250 -336 -252 -336
-251 -336 251 -336 252 333 250 c183 137 335 249 339 249 4 0 156 -112 339
-249z m-720 -540 l333 -250 -336 -252 -336 -251 -336 251 -336 252 333 250
c183 137 335 249 339 249 4 0 156 -112 339 -249z m-1396 -34 l288 -216 -320
-240 -321 -241 0 481 0 481 33 -24 c17 -14 162 -122 320 -241z m2467 -217 l0
-480 -321 241 -321 240 319 239 c175 132 319 240 321 240 1 0 2 -216 2 -480z
m-1791 -289 l333 -250 -336 -252 -336 -251 -336 251 -336 252 333 250 c183
137 335 249 339 249 4 0 156 -112 339 -249z m1440 0 l333 -250 -336 -252 -336
-251 -336 251 -336 252 333 250 c183 137 335 249 339 249 4 0 156 -112 339
-249z m-720 -540 l333 -250 -336 -252 -336 -251 -336 251 -336 252 333 250
c183 137 335 249 339 249 4 0 156 -112 339 -249z m-1396 -34 l288 -216 -178
-133 c-98 -74 -183 -137 -190 -141 -13 -8 -70 78 -126 188 -71 142 -125 335
-141 504 l-6 63 33 -24 c17 -14 162 -122 320 -241z m2456 167 c-24 -216 -95
-417 -211 -601 -25 -39 -44 -60 -51 -56 -7 4 -92 67 -190 141 l-178 133 318
239 c175 131 319 237 320 236 1 -1 -2 -42 -8 -92z m-1780 -673 l332 -250 -180
-136 -181 -136 -103 41 c-205 80 -408 221 -543 379 l-54 63 191 144 c106 79
195 144 199 144 4 0 156 -112 339 -249z m1300 105 l191 -144 -54 -63 c-135
-158 -338 -299 -543 -379 l-103 -41 -181 136 -180 136 332 250 c183 137 335
249 339 249 4 0 93 -65 199 -144z m-744 -522 c175 -132 173 -123 39 -145 -144
-22 -442 -11 -527 20 -16 6 11 29 144 129 90 68 169 120 176 118 6 -3 82 -58
168 -122z"/>
</g>
</svg>
